<svg width="30" height="30" viewBox="0 0 30 30" fill="none" xmlns="http://www.w3.org/2000/svg">
<rect width="30" height="30" rx="6" fill="url(#paint0_radial_652_979)" fill-opacity="0.7"/>
<path fill-rule="evenodd" clip-rule="evenodd" d="M7 15.1209C7 10.4547 10.6558 7 15.3721 7C20.0883 7 23.7442 10.4547 23.7442 15.1209C23.7442 19.7872 20.0883 23.2419 15.3721 23.2419C14.525 23.2419 13.7122 23.13 12.9486 22.92C12.8002 22.8792 12.6423 22.8907 12.5015 22.9529L10.8397 23.6864C10.405 23.8783 9.91438 23.5692 9.89981 23.0942L9.85421 21.6049C9.8486 21.4214 9.76606 21.25 9.62931 21.1276C8.0003 19.6708 7 17.5617 7 15.1209ZM12.8039 13.5938L10.3446 17.4955C10.1086 17.87 10.5689 18.2919 10.9215 18.0244L13.5632 16.0195C13.7419 15.8839 13.9888 15.8832 14.1683 16.0178L16.1243 17.4848C16.7112 17.925 17.549 17.7705 17.9402 17.1498L20.3995 13.248C20.6355 12.8736 20.1752 12.4516 19.8226 12.7192L17.1809 14.724C17.0022 14.8597 16.7553 14.8604 16.5758 14.7258L14.6198 13.2588C14.0329 12.8186 13.1951 12.9731 12.8039 13.5938Z" fill="white"/>
<defs>
<radialGradient id="paint0_radial_652_979" cx="0" cy="0" r="1" gradientUnits="userSpaceOnUse" gradientTransform="translate(5.7741 29.8395) scale(32.688)">
<stop stop-color="#0099FF"/>
<stop offset="0.60975" stop-color="#A033FF"/>
<stop offset="0.93482" stop-color="#FF5280"/>
<stop offset="1" stop-color="#FF7061"/>
</radialGradient>
</defs>
</svg>
