<svg width="30" height="30" viewBox="0 0 30 30" fill="none" xmlns="http://www.w3.org/2000/svg">
<rect width="30" height="30" rx="6" fill="white"/>
<path d="M19.4999 12.7838C19.492 12.7168 11.332 12.7673 11.2539 12.7838C11.198 12.7956 11.751 17.3899 12.0693 19.9965C12.1916 20.9985 13.0427 21.75 14.0522 21.75H16.9629C18.0071 21.75 18.8753 20.9492 18.9563 19.9082C19.1594 17.298 19.5055 12.8311 19.4999 12.7838Z" fill="#0085FF" stroke="#0085FF"/>
<path d="M13.875 10.25H14.375V9.75C14.375 9.19772 14.8227 8.75 15.375 8.75C15.9273 8.75 16.375 9.19772 16.375 9.75V10.25H16.875H19.7865C19.8812 10.25 19.9677 10.3035 20.0101 10.3882L20.431 10.1777L20.0101 10.3882C20.0932 10.5544 19.9723 10.75 19.7865 10.75H10.9635C10.7777 10.75 10.6568 10.5544 10.7399 10.3882C10.7823 10.3035 10.8688 10.25 10.9635 10.25H13.875Z" stroke="#0085FF" stroke-linecap="round"/>
</svg>
