<svg width="30" height="30" viewBox="0 0 30 30" fill="none" xmlns="http://www.w3.org/2000/svg">
<rect width="30" height="30" rx="6" fill="#00A9E7" fill-opacity="0.7"/>
<path d="M21.8842 15.8406C21.9342 15.4411 21.9841 15.0914 21.9841 14.6919C21.9841 10.6961 18.7376 7.39958 14.6919 7.39958C14.2923 7.39958 13.9427 7.44952 13.5431 7.49947C12.8938 7.14984 12.1945 7 11.4952 7C8.99789 7 7 8.99789 7 11.4952C7 12.1945 7.14984 12.8938 7.49947 13.5431C7.44952 13.9427 7.39958 14.2923 7.39958 14.6919C7.39958 18.6876 10.6461 21.9841 14.6919 21.9841C15.0914 21.9841 15.4411 21.9342 15.8406 21.8842C16.49 22.1839 17.1892 22.3837 17.8885 22.3837C20.3858 22.3837 22.3837 20.3858 22.3837 17.8885C22.3837 17.1892 22.1839 16.49 21.8842 15.8406ZM17.7386 17.3391C17.5888 17.6387 17.389 17.8885 17.0893 18.0883C16.7896 18.2881 16.49 18.4379 16.0904 18.5378C15.6908 18.6377 15.2413 18.6876 14.7418 18.6876C13.6929 18.6876 12.8438 18.4379 12.2445 17.9884C11.8948 17.6887 11.5951 17.3391 11.4453 16.8895C11.2455 16.49 11.5951 15.9905 12.0946 15.9905H12.2445C12.5441 15.9905 12.8438 16.1903 12.9437 16.44C13.0436 16.6897 13.1934 16.8895 13.3932 17.0394C13.6929 17.2891 14.1424 17.389 14.6919 17.389C15.1913 17.389 15.5909 17.2891 15.8906 17.1393C16.1903 16.9894 16.3401 16.6897 16.3401 16.3901C16.3401 16.2402 16.2902 16.1403 16.2402 16.0404C16.1903 15.9405 16.0404 15.8406 15.9405 15.7907C15.7907 15.6908 15.6409 15.6409 15.3911 15.5909C15.1913 15.541 14.9416 15.4411 14.6419 15.3911L14.3422 15.2912C13.9926 15.1913 13.593 15.0914 13.2933 14.9915C12.9437 14.8916 12.644 14.7418 12.3943 14.592C12.1446 14.4421 11.9448 14.2423 11.7949 13.9427C11.6451 13.6929 11.5951 13.3433 11.5951 12.9437C11.5951 12.5441 11.695 12.1945 11.8449 11.8948C11.9947 11.5951 12.2445 11.3454 12.4942 11.1956C12.7939 10.9958 13.0936 10.8459 13.4931 10.796C13.8428 10.6961 14.2423 10.6461 14.6919 10.6461C15.1913 10.6461 15.5909 10.6961 15.9905 10.796C16.3901 10.8959 16.6897 11.0457 16.9894 11.2955C17.2891 11.4952 17.4889 11.745 17.6387 12.0946C17.8885 12.5441 17.5388 13.1435 16.9894 13.1435H16.8396C16.5399 13.1435 16.2902 12.9937 16.1403 12.7439C16.0404 12.5941 15.9405 12.4442 15.7907 12.2944C15.541 12.0946 15.1414 11.9947 14.6919 11.9947C14.2423 11.9947 13.8927 12.0946 13.643 12.2445C13.3932 12.3943 13.2933 12.644 13.2933 12.8938C13.2933 13.0436 13.3433 13.1435 13.3932 13.2434C13.4432 13.3433 13.5431 13.4432 13.6929 13.4931C13.8428 13.5431 13.9926 13.643 14.1924 13.6929C14.3922 13.7429 14.6419 13.7928 14.9416 13.8927C15.2413 13.9427 15.491 14.0425 15.7907 14.0925C16.0404 14.1424 16.2902 14.2423 16.5399 14.2923C16.7896 14.3922 16.9894 14.4921 17.1892 14.592C17.389 14.6919 17.5388 14.8417 17.6887 14.9915C17.8385 15.1414 17.9384 15.3412 17.9884 15.541C18.0883 15.7408 18.0883 16.0404 18.0883 16.3401C17.9884 16.6897 17.8885 17.0394 17.7386 17.3391Z" fill="white"/>
</svg>
