<svg width="30" height="30" viewBox="0 0 30 30" fill="none" xmlns="http://www.w3.org/2000/svg">
<rect width="30" height="30" rx="6" fill="#2F89CE" fill-opacity="0.7"/>
<path d="M6.25691 15.1345L9.62528 16.3905L10.9384 20.6152C10.9955 20.9007 11.338 20.9578 11.5664 20.7865L13.4504 19.245C13.6216 19.0738 13.9071 19.0738 14.1355 19.245L17.5038 21.7C17.7322 21.8712 18.0747 21.757 18.1318 21.4716L20.6438 9.4825C20.7009 9.19705 20.4155 8.9116 20.13 9.02578L6.25691 14.3923C5.91436 14.5065 5.91436 15.0203 6.25691 15.1345ZM10.7671 15.7625L17.3896 11.709C17.5038 11.652 17.618 11.8232 17.5038 11.8803L12.0802 16.9614C11.9089 17.1327 11.7376 17.361 11.7376 17.6465L11.5664 19.0167C11.5664 19.188 11.2809 19.245 11.2238 19.0167L10.5387 16.5047C10.3675 16.2192 10.4816 15.8767 10.7671 15.7625Z" fill="white"/>
</svg>
