<svg width="30" height="30" viewBox="0 0 30 30" fill="none" xmlns="http://www.w3.org/2000/svg">
<rect width="30" height="30" rx="6" fill="#7C509A" fill-opacity="0.7"/>
<path d="M18.9069 7.39991C16.1148 6.8667 13.2152 6.8667 10.4231 7.39991C9.18808 7.66652 7.63092 9.15953 7.36244 10.3326C6.87919 12.6255 6.87919 14.9716 7.36244 17.2644C7.68462 18.4375 9.24178 19.9305 10.4231 20.1971C10.4768 20.1971 10.5305 20.2505 10.5305 20.3038V23.6631C10.5305 23.823 10.7453 23.9297 10.8526 23.7697L12.4635 22.1167C12.4635 22.1167 13.7522 20.7837 13.967 20.5704C13.967 20.5704 14.0207 20.5171 14.0744 20.5171C15.6852 20.5704 17.3498 20.4104 18.9606 20.1438C20.1956 19.8772 21.7528 18.3842 22.0213 17.2111C22.5045 14.9183 22.5045 12.5721 22.0213 10.2793C21.6991 9.15953 20.1419 7.66652 18.9069 7.39991ZM18.9606 17.4244C18.6922 17.9576 18.37 18.3842 17.833 18.6508C17.672 18.7041 17.5109 18.7575 17.3498 18.8108C17.135 18.7575 16.9739 18.7041 16.8128 18.6508C15.0946 17.9576 13.4837 16.9978 12.195 15.6115C11.497 14.8116 10.9063 13.9052 10.4231 12.9454C10.2083 12.4655 9.99352 12.0389 9.83243 11.559C9.67134 11.1324 9.93982 10.7059 10.2083 10.3859C10.4768 10.066 10.7989 9.85272 11.1748 9.69275C11.4433 9.53279 11.7118 9.63943 11.9266 9.85272C12.3561 10.3859 12.7857 10.9192 13.1078 11.5057C13.3226 11.8789 13.2689 12.3055 12.8931 12.5721C12.7857 12.6254 12.732 12.6788 12.6246 12.7854C12.5709 12.8387 12.4635 12.8921 12.4098 12.9987C12.3024 13.1587 12.3024 13.3186 12.3561 13.4786C12.7857 14.705 13.5911 15.6648 14.8261 16.198C15.0409 16.3047 15.202 16.358 15.4704 16.358C15.8463 16.3047 16.0074 15.8781 16.2759 15.6648C16.5444 15.4515 16.8665 15.4515 17.1887 15.6115C17.4572 15.7714 17.7256 15.9847 18.0478 16.198C18.3163 16.4113 18.5848 16.5713 18.8532 16.7846C19.0143 16.8912 19.068 17.1578 18.9606 17.4244ZM16.7054 13.4253C16.598 13.4253 16.6517 13.4253 16.7054 13.4253C16.4907 13.4253 16.437 13.3186 16.3833 13.1587C16.3833 13.052 16.3833 12.8921 16.3296 12.7854C16.2759 12.5721 16.1685 12.3588 15.9537 12.1989C15.8463 12.1456 15.7389 12.0922 15.6315 12.0389C15.4704 11.9856 15.3631 11.9856 15.202 11.9856C15.0409 11.9323 14.9872 11.8256 14.9872 11.6657C14.9872 11.559 15.1483 11.4524 15.2557 11.4524C16.1148 11.5057 16.7591 11.9856 16.8665 12.9987C16.8665 13.052 16.8665 13.1587 16.8665 13.212C16.8665 13.3186 16.8128 13.4253 16.7054 13.4253ZM16.1685 11.0791C15.9 10.9725 15.6315 10.8658 15.3094 10.8125C15.202 10.8125 15.0409 10.7592 14.9335 10.7592C14.7724 10.7592 14.665 10.6525 14.7187 10.4926C14.7187 10.3326 14.8261 10.226 14.9872 10.2793C15.5241 10.3326 16.0074 10.4393 16.4907 10.6525C17.4572 11.1324 17.9941 11.9323 18.1552 12.9987C18.1552 13.052 18.1552 13.1053 18.1552 13.1587C18.1552 13.2653 18.1552 13.372 18.1552 13.5319C18.1552 13.5852 18.1552 13.6386 18.1552 13.6919C18.1015 13.9052 17.7256 13.9585 17.672 13.6919C17.672 13.6386 17.6183 13.5319 17.6183 13.4786C17.6183 12.9987 17.5109 12.5188 17.2961 12.0922C16.9739 11.6123 16.598 11.2924 16.1685 11.0791ZM19.068 14.2784C18.9069 14.2784 18.7996 14.1185 18.7996 13.9585C18.7996 13.6386 18.7459 13.3186 18.6922 12.9987C18.4774 11.2924 17.0813 9.90604 15.4167 9.63943C15.1483 9.58611 14.8798 9.58611 14.665 9.53279C14.5039 9.53279 14.2891 9.53279 14.2354 9.3195C14.1818 9.15953 14.3428 8.99957 14.5039 8.99957C14.5576 8.99957 14.6113 8.99957 14.6113 8.99957C16.8128 9.05289 14.7187 8.99957 14.6113 8.99957C16.8665 9.05289 18.7459 10.5459 19.1217 12.7854C19.1754 13.1587 19.2291 13.5319 19.2291 13.9585C19.3365 14.1185 19.2291 14.2784 19.068 14.2784Z" fill="white"/>
</svg>
