<svg width="30" height="30" viewBox="0 0 30 30" fill="none" xmlns="http://www.w3.org/2000/svg">
<rect width="30" height="30" rx="6" fill="#48C95F" fill-opacity="0.7"/>
<path d="M20.1324 9.24346C18.6852 7.80123 16.7555 7 14.7187 7C10.4841 7 7.0536 10.4186 7.0536 14.6384C7.0536 15.9738 7.42881 17.3092 8.07204 18.431L7 22.3837L11.0737 21.3154C12.1994 21.903 13.4322 22.2235 14.7187 22.2235C18.9532 22.2235 22.3837 18.8049 22.3837 14.585C22.3301 12.6086 21.5797 10.6857 20.1324 9.24346ZM18.4172 17.3626C18.2564 17.79 17.506 18.2173 17.1307 18.2707C16.8091 18.3241 16.3803 18.3241 15.9515 18.2173C15.6835 18.1105 15.3083 18.0036 14.8795 17.79C12.9498 16.9887 11.717 15.0658 11.6098 14.9055C11.5026 14.7987 10.8057 13.8906 10.8057 12.9291C10.8057 11.9677 11.2881 11.5403 11.449 11.3267C11.6098 11.113 11.8242 11.113 11.985 11.113C12.0922 11.113 12.253 11.113 12.3602 11.113C12.4674 11.113 12.6282 11.0596 12.789 11.4335C12.9498 11.8074 13.325 12.7689 13.3786 12.8223C13.4322 12.9291 13.4322 13.036 13.3786 13.1428C13.325 13.2496 13.2714 13.3565 13.1642 13.4633C13.057 13.5701 12.9498 13.7304 12.8962 13.7838C12.789 13.8906 12.6818 13.9975 12.789 14.1577C12.8962 14.3714 13.2714 14.9589 13.861 15.4931C14.6115 16.1341 15.2011 16.3477 15.4155 16.4546C15.6299 16.5614 15.7371 16.508 15.8443 16.4012C15.9515 16.2943 16.3267 15.867 16.4339 15.6533C16.5411 15.4397 16.7019 15.4931 16.8627 15.5465C17.0235 15.5999 17.9884 16.0807 18.1492 16.1875C18.3636 16.2943 18.4708 16.3477 18.5244 16.4012C18.578 16.5614 18.578 16.9353 18.4172 17.3626Z" fill="white"/>
</svg>
