<?xml version="1.0" encoding="utf-8"?>
<!-- Generator: Adobe Illustrator 21.0.2, SVG Export Plug-In . SVG Version: 6.00 Build 0)  -->
<svg version="1.1" id="Слой_1" xmlns="http://www.w3.org/2000/svg" xmlns:xlink="http://www.w3.org/1999/xlink" x="0px" y="0px"
	 viewBox="0 0 58 20" style="enable-background:new 0 0 58 20;" xml:space="preserve">
<style type="text/css">
	.st0{fill:#3F3F3F;}
</style>
<path class="st0" d="M35.2,5.1c0.4-0.6,0.2-1.4-0.5-1.7c-0.7-0.3-1.3-0.1-1.7,0.5l-1.3,2.3h2.8L35.2,5.1z M2.9,8.5l12.7-1.7L24.9,1
	h0.4c0.3,0,0.6,0.2,0.6,0.5c0,0.2,0,0.3-0.2,0.4l-6.1,5h22c2.4,0,3.2-1.5,3.2-1.5l9.7,1.4c2,0.8,3.7,2.4,3.7,5.2c0,2.1-1,4.2-2.3,5
	h-4.8v-1.4c0-3.2-2.5-5.8-5.6-5.8c-3.1,0-5.6,2.6-5.6,5.8V17H15.5v-1.4c0-3.2-2.5-5.8-5.6-5.8c-3.1,0-5.6,2.6-5.6,5.8V17h-3
	C0.5,16.1,0,14.9,0,13.4C-0.2,10.9,1.1,8.8,2.9,8.5z M42.6,15.6c0,1.5,1.2,2.7,2.6,2.7c1.4,0,2.6-1.2,2.6-2.7c0-1.5-1.2-2.7-2.6-2.7
	C43.8,12.9,42.6,14.1,42.6,15.6z M7.1,15.6c0,1.5,1.2,2.7,2.6,2.7c1.4,0,2.6-1.2,2.6-2.7c0-1.5-1.2-2.7-2.6-2.7
	C8.4,12.9,7.1,14.1,7.1,15.6z M45.2,11.2c2.3,0,4.2,2,4.2,4.4S47.6,20,45.2,20c-2.3,0-4.2-2-4.2-4.4S42.9,11.2,45.2,11.2z M9.8,11.2
	c2.3,0,4.2,2,4.2,4.4S12.1,20,9.8,20c-2.3,0-4.2-2-4.2-4.4S7.4,11.2,9.8,11.2z"/>
</svg>
