<?xml version="1.0" encoding="utf-8"?>
<!-- Generator: Adobe Illustrator 21.0.2, SVG Export Plug-In . SVG Version: 6.00 Build 0)  -->
<svg version="1.1" id="Слой_1" xmlns="http://www.w3.org/2000/svg" xmlns:xlink="http://www.w3.org/1999/xlink" x="0px" y="0px"
	 viewBox="0 0 58 20" style="enable-background:new 0 0 58 20;" xml:space="preserve">
<style type="text/css">
	.st0{fill:#3F3F3F;}
</style>
<path class="st0" d="M45.3,12.6c1.4,0,2.7,1.3,2.7,2.8c0,1.6-1.1,2.9-2.7,2.9c-1.5,0-2.7-1.3-2.7-2.9C42.6,13.9,43.9,12.6,45.3,12.6
	z M10.7,12.6c1.4,0,2.7,1.3,2.7,2.8c0,1.6-1.1,2.9-2.7,2.9c-1.4,0-2.7-1.3-2.7-2.9C8.1,13.9,9.2,12.6,10.7,12.6z M5,8.6
	c4.5-1.9,12-1.5,12-1.5s6.8-4.4,10.1-5.2C28.7,1.5,31.6,1,34.6,1c2.2,0,4.5,0.2,6.5,0.9c2.5,0.8,6.6,2.2,10.3,4.3l4.4-1.4l0.7,0.8
	l-1.8,2.6c2.1,1.3,3.2,3.4,3.2,5c0,3.8-3.3,4.8-4.9,4.8H51v-2.6c0-3.4-2.6-6.1-5.7-6.1c-3.1,0-5.7,2.7-5.7,6.1V18H16.3v-2.6
	c0-3.4-2.6-6.1-5.7-6.1c-3.1,0-5.7,2.7-5.7,6.1V18l-3.5-0.3c-0.9-1-1.4-1.8-1.4-3C0.1,13.1,1.2,10.2,5,8.6z M40.3,7.1
	c1.4,0,4-0.4,4-1.5c0-1.3-2.8-2.1-3.5-2.3c-1.1-0.3-2.5-0.6-4.1-0.7l-1.4,4.5H40.3z M33.3,7.1l1.4-4.6h-0.7c-3.3,0-5.1,0.4-6.6,0.8
	c-1.8,0.5-6.2,2.6-7.6,3.7h13.4V7.1z M41,15.4c0,2.5,1.9,4.6,4.3,4.6c2.4,0,4.3-2,4.3-4.6c0-2.5-1.9-4.6-4.3-4.6
	C42.9,10.8,41,12.9,41,15.4z M6.5,15.4c0,2.5,1.9,4.6,4.3,4.6c2.4,0,4.3-2,4.3-4.6c0-2.5-1.9-4.6-4.3-4.6
	C8.4,10.8,6.5,12.9,6.5,15.4z"/>
</svg>
