<?xml version="1.0" encoding="utf-8"?>
<!-- Generator: Adobe Illustrator 21.0.2, SVG Export Plug-In . SVG Version: 6.00 Build 0)  -->
<svg version="1.1" id="Слой_1" xmlns="http://www.w3.org/2000/svg" xmlns:xlink="http://www.w3.org/1999/xlink" x="0px" y="0px"
	 viewBox="0 0 58 20" style="enable-background:new 0 0 58 20;" xml:space="preserve">
<style type="text/css">
	.st0{fill:#3F3F3F;}
</style>
<g>
	<path class="st0" d="M45.7,11c-2.5,0-4.6,2-4.6,4.5c0,2.5,2.1,4.5,4.6,4.5s4.6-2,4.6-4.5C50.2,13,48.2,11,45.7,11z M45.7,18.3
		c-1.6,0-2.8-1.2-2.8-2.8c0-1.6,1.2-2.8,2.8-2.8c1.6,0,2.8,1.2,2.8,2.8C48.5,17.1,47.1,18.3,45.7,18.3z"/>
	<path class="st0" d="M56.6,7.1l-0.2-0.2l-0.1-0.1l-4.9-4.6C50,0.8,48,0,45.6,0H28c-2.4,0-3.5,0.5-5,1.4l-7.1,4.3L3.2,7.3
		C1.4,7.7,0,9.6,0,12.1v1.8c0,1,0.4,2.4,0.9,3.1h2.6v-1.4c0-3.6,3-6,6.7-6c3.7,0,6.7,2.5,6.7,6V17h21.9v-1.4c0-3.6,3-6,6.7-6
		s6.7,2.5,6.7,6V17h2.8l1.6-0.5C57.4,16.1,58,15,58,14v-3C58,9.3,57.4,8,56.6,7.1z M30.9,5.9H18.7l5.1-3.3c1.3-0.9,2.4-0.9,3.8-0.9
		h4.2L30.9,5.9z M33.2,5.9L34,1.7h5.6l1.6,4.2H33.2z M43,5.9l-1.3-4.2h1.4c1.9,0,3.3,0.3,4.2,1.4l2.2,2.8H43z"/>
	<path class="st0" d="M10.2,11c-2.5,0-4.6,2-4.6,4.5c0,2.5,2.1,4.5,4.6,4.5s4.6-2,4.6-4.5C14.8,13,12.7,11,10.2,11z M10.3,18.3
		c-1.6,0-2.8-1.2-2.8-2.8c0-1.6,1.2-2.8,2.8-2.8c1.6,0,2.8,1.2,2.8,2.8C13.1,17.1,11.8,18.3,10.3,18.3z"/>
</g>
</svg>
