<?xml version="1.0" encoding="utf-8"?>
<!-- Generator: Adobe Illustrator 21.0.2, SVG Export Plug-In . SVG Version: 6.00 Build 0)  -->
<svg version="1.1" id="Слой_1" xmlns="http://www.w3.org/2000/svg" xmlns:xlink="http://www.w3.org/1999/xlink" x="0px" y="0px"
	 viewBox="0 0 58 20" style="enable-background:new 0 0 58 20;" xml:space="preserve">
<style type="text/css">
	.st0{fill:#3F3F3F;}
</style>
<path class="st0" d="M25.1,6.7l1.2-5.5h-0.9c-1.2,0-4.8,0.7-6.8,1.4c-2.6,1-7.8,3-9.2,4.1H25.1z M35.3,6.7c0.8,0,1.8-0.7,2-1.8
	c-0.9-2.1-2.9-3.7-6-3.7h-2.4l-1.2,5.5H35.3z M3.6,7.5C5.3,7,8.1,5.7,8.1,5.7s6.7-3.2,10-4.4C20.3,0.6,24,0,25.6,0h6.6
	c2.5,0.1,5,1.5,6.9,3.1c3.4,2.9,5.9,8.1,5.9,11.3c0,0.9-0.3,2.5-0.5,3.3h-1.6v-1.2c0-3.4-2.6-6.2-6-6.2c-3.4,0-6,2.8-6,6.2v1.2H14.3
	v-1.2c0-3.4-2.6-6.2-6-6.2c-3.4,0-6,2.8-6,6.2v1.2H0.4C0.1,16.5,0,15.1,0,14C0,12.3,1.1,8.3,3.6,7.5z"/>
<path class="st0" d="M37.1,11.2c2.5,0,4.6,2,4.6,4.4S39.6,20,37.1,20c-2.5,0-4.6-2-4.6-4.4S34.5,11.2,37.1,11.2z M37.1,18.4
	c1.5,0,2.9-1.2,2.9-2.8s-1.3-2.8-2.9-2.8s-2.9,1.2-2.9,2.8S35.5,18.4,37.1,18.4z M7.9,11.2c2.5,0,4.6,2,4.6,4.4S10.4,20,7.9,20
	c-2.5,0-4.6-2-4.6-4.4S5.4,11.2,7.9,11.2z M7.9,18.4c1.5,0,2.9-1.2,2.9-2.8s-1.3-2.8-2.9-2.8c-1.5,0-2.9,1.2-2.9,2.8
	S6.4,18.4,7.9,18.4z"/>
</svg>
