<?xml version="1.0" encoding="utf-8"?>
<!-- Generator: Adobe Illustrator 21.0.2, SVG Export Plug-In . SVG Version: 6.00 Build 0)  -->
<svg version="1.1" id="Слой_1" xmlns="http://www.w3.org/2000/svg" xmlns:xlink="http://www.w3.org/1999/xlink" x="0px" y="0px"
	 viewBox="0 0 58 20" style="enable-background:new 0 0 58 20;" xml:space="preserve">
<style type="text/css">
	.st0{fill:#3F3F3F;}
</style>
<path class="st0" d="M2.9,8.6l12.7-1.7l7.1-4.4c1.6-1,2.6-1.5,5-1.5h17.6c2.3,0,4.3,0.8,5.8,2.2l4.7,4.5C57.1,8.8,58,10.1,58,12
	c0,2.1-1,4.2-2.3,5h-4.8v-1.4c0-3.2-2.5-5.8-5.6-5.8c-3.1,0-5.6,2.6-5.6,5.8V17H15.5v-1.4c0-3.2-2.5-5.8-5.6-5.8
	c-3.1,0-5.6,2.6-5.6,5.8V17h-3C0.5,16.1,0,14.9,0,13.4C-0.2,10.9,1.1,8.9,2.9,8.6z M45.1,7.1h6.3l-2.2-2.7c-1-1.2-2.9-1.8-4.8-1.8
	h-1.4L45.1,7.1z M42.9,7.1L41,2.6h-7.1l-0.8,4.5H42.9z M31.1,7.1l0.7-4.5h-4.1c-2.1,0-2.7,0.4-4.1,1.3l-5.1,3.3L31.1,7.1L31.1,7.1z
	 M45.2,12.9c1.5,0,2.6,1.2,2.6,2.7c0,1.5-1.2,2.7-2.6,2.7c-1.5,0-2.6-1.2-2.6-2.7C42.6,14.1,43.7,12.9,45.2,12.9z M9.8,12.9
	c1.5,0,2.6,1.2,2.6,2.7c0,1.5-1.2,2.7-2.6,2.7c-1.4,0-2.6-1.2-2.6-2.7C7.1,14.1,8.3,12.9,9.8,12.9z M41,15.6c0,2.4,1.9,4.4,4.2,4.4
	c2.3,0,4.2-2,4.2-4.4c0-2.4-1.9-4.4-4.2-4.4C42.9,11.2,41,13.2,41,15.6z M5.5,15.6C5.5,18,7.3,20,9.7,20c2.3,0,4.2-2,4.2-4.4
	c0-2.4-1.9-4.4-4.2-4.4C7.4,11.2,5.5,13.2,5.5,15.6z"/>
</svg>
