<?xml version="1.0" encoding="utf-8"?>
<!-- Generator: Adobe Illustrator 21.0.2, SVG Export Plug-In . SVG Version: 6.00 Build 0)  -->
<svg version="1.1" id="Слой_1" xmlns="http://www.w3.org/2000/svg" xmlns:xlink="http://www.w3.org/1999/xlink" x="0px" y="0px"
	 viewBox="0 0 58 20" style="enable-background:new 0 0 58 20;" xml:space="preserve">
<style type="text/css">
	.st0{fill:#3F3F3F;}
</style>
<path class="st0" d="M45.2,12.9c1.5,0,2.6,1.2,2.6,2.7c0,1.5-1.2,2.7-2.6,2.7c-1.5,0-2.6-1.2-2.6-2.7C42.6,14.1,43.7,12.9,45.2,12.9
	z M9.8,12.9c1.5,0,2.6,1.2,2.6,2.7c0,1.5-1.2,2.7-2.6,2.7s-2.6-1.2-2.6-2.7C7.1,14.1,8.3,12.9,9.8,12.9z M2.9,8.6l12.7-1.7l7.1-4.4
	c1.6-1,2.6-1.5,5-1.5h8.5c2.3,0,3.4,0.5,5,1.5l4.9,3.4l8.4,1C56.3,7.7,58,9.3,58,12c0,2.1-1,4.2-2.3,5h-4.8v-1.4
	c0-3.2-2.5-5.8-5.6-5.8c-3.1,0-5.6,2.6-5.6,5.8V17H15.5v-1.4c0-3.2-2.5-5.8-5.6-5.8c-3.1,0-5.6,2.6-5.6,5.8V17h-3
	C0.5,16.1,0,14.9,0,13.4C-0.2,10.9,1.1,8.9,2.9,8.6z M42.1,7.1L40,4.2c-1-1.2-2.3-1.6-4.5-1.6h-1.6l-1.2,4.5H42.1z M30.8,7.1
	l0.9-4.5h-4c-2.1,0-2.8,0.4-4.2,1.3l-4.9,3.2H30.8z M41,15.6c0,2.4,1.9,4.4,4.2,4.4c2.3,0,4.2-2,4.2-4.4c0-2.4-1.9-4.4-4.2-4.4
	C42.9,11.2,41,13.2,41,15.6z M5.5,15.6C5.5,18,7.3,20,9.7,20c2.3,0,4.2-2,4.2-4.4c0-2.4-1.9-4.4-4.2-4.4C7.4,11.2,5.5,13.2,5.5,15.6
	z"/>
</svg>
