<?xml version="1.0" encoding="utf-8"?>
<!-- Generator: Adobe Illustrator 21.0.2, SVG Export Plug-In . SVG Version: 6.00 Build 0)  -->
<svg version="1.1" id="Слой_1" xmlns="http://www.w3.org/2000/svg" xmlns:xlink="http://www.w3.org/1999/xlink" x="0px" y="0px"
	 viewBox="0 0 58 20" style="enable-background:new 0 0 58 20;" xml:space="preserve">
<style type="text/css">
	.st0{fill:#3F3F3F;}
</style>
<path class="st0" d="M47.4,13.9c1.5,0,2.6,1.1,2.6,2.3s-1.2,2.3-2.6,2.3c-1.5,0-2.6-1.1-2.6-2.3S45.9,13.9,47.4,13.9z M9,13.9
	c1.5,0,2.6,1.1,2.6,2.3s-1.2,2.3-2.6,2.3c-1.4,0-2.6-1.1-2.6-2.3S7.6,13.9,9,13.9z M2.9,8.7l11.4-6.2C16.7,1.3,19,0,23.9,0h19.3
	c8.6,0,10.8,2.8,11.9,5.2c0,0,2.8,5,2.8,6.7v1.8c0,1.8-1,3-2.3,3.8H53v-1.3c0-2.7-2.5-5-5.6-5c-3.1,0-5.6,2.3-5.6,5v1.3H14.8v-1.3
	c0-2.7-2.5-5-5.6-5c-3.1,0-5.6,2.3-5.6,5v1.3H1.2C0.5,16.8,0,15.7,0,14.3C-0.2,12.3,0.6,9.8,2.9,8.7z M44.8,6.7h8
	c-0.4-0.8-0.6-1.3-1-2.3c-0.8-1.7-3.6-2.7-8.3-2.7L44.8,6.7z M42.8,6.7l-1.3-5H31l-0.9,5H42.8z M28,6.7l0.9-5h-5
	c-4,0-6.5,0.8-8.4,1.8L9.1,6.7H28z M43.1,16.3c0,2.1,1.9,3.8,4.2,3.8c2.3,0,4.2-1.7,4.2-3.8s-1.9-3.8-4.2-3.8
	C45.1,12.5,43.1,14.2,43.1,16.3z M4.8,16.3C4.8,18.3,6.7,20,9,20c2.3,0,4.2-1.7,4.2-3.8s-1.9-3.8-4.2-3.8
	C6.7,12.5,4.8,14.2,4.8,16.3z"/>
</svg>
