<?xml version="1.0" encoding="utf-8"?>
<!-- Generator: Adobe Illustrator 21.0.2, SVG Export Plug-In . SVG Version: 6.00 Build 0)  -->
<svg version="1.1" id="Layer1" xmlns="http://www.w3.org/2000/svg" xmlns:xlink="http://www.w3.org/1999/xlink" x="0px" y="0px"
	 viewBox="0 0 100 100" style="enable-background:new 0 0 100 100;" xml:space="preserve">
<style type="text/css">
	.st0{fill:#FFFFFF;}
	.st1{fill:#1D2ACC;stroke:#1D2ACC;stroke-width:4;stroke-miterlimit:10;}
</style>
<circle class="st0" cx="50.5" cy="50.5" r="50"/>
<path class="st1" d="M5.3,46.6L4.2,60.3L4.1,69l1.7,2.1L23.4,72l12,0.4l7.5-0.7l0.7,0.1c0,0-0.2,4.7,1.8,7.3c2,2.6,4.3,2,4.3,2
	s2.7-1,3.6-5.9c0.9-4.9-1.1-9.4-1.1-9.4s-0.9-2-3.3-2.6c-2.4-0.6-3.1,2-3.1,2s-0.2-3.4,2.5-5.4c2.7-2,5.8-1.7,5.8-1.7s2,0.4,2.2-1.1
	c0.2-1.7-0.2-27.2-0.2-27.2s0.1-0.8-3.8-3.3s6.4,2.1,6.4,2.1V60c0,0,0.1,1.2,2.8,1c2.7-0.2,15.5-0.2,15.5-0.2s0.9,4.3-4.2,5.8
	c0,0-1.8,0.6-14.9,1c0,0-2.4-0.2-2.9,3.3c-0.6,3.5-0.4,6.1-2,8.6c-1.7,2.6-2.8,2.7-2.8,2.7s-2.8,1.1-7.4,0c-4.7-1.1-4.9-6.5-4.9-6.5
	l-10.2-0.3c0,0-8.1,8.6-14.1-1.2c0,0-0.7-0.7-4.2-1l-3.5-0.1l-2.9-3.3l1-18c0.1-1.1,0.1-5,0.6-5.3C4.8,46.2,5.3,46.5,5.3,46.6z"/>
<path class="st1" d="M33.4,21.4l0.3-2.1L65,14.9l26.8,15.7c0,0,0.7,0.6-0.9,0c-1.7-0.6-23.8-12.5-23.8-12.5s-0.1-0.1-0.1,0.2
	c0,0.3-0.2,37-0.2,37H64l0.4-37.7c0,0,0.2-0.4-0.6-0.3C63.1,17.4,33.4,21.4,33.4,21.4z"/>
<path class="st1" d="M36.5,27.3c0,0-21.1,1.2-23.8,1.9c-2.7,0.6-3.1,2.4-3.1,2.4L7,42.8l28.3-0.4c0,0,2.2-11,2.7-12.9
	C38.6,27.3,36.5,27.3,36.5,27.3z M35.9,30.7c-0.4,2-1.9,8.4-1.9,8.4s-0.1,1.5-2.4,1.9c-2.2,0.3-21.9,0.4-21.9,0.4S8.8,41.3,9,40.3
	l1.5-7.5c0,0,0.3-1.8,3-2.1c2.7-0.3,20.5-1.3,20.5-1.3S36.3,28.7,35.9,30.7z"/>
</svg>
