<svg width="289" height="33" viewBox="0 0 289 33" fill="none" xmlns="http://www.w3.org/2000/svg">
<path d="M130.05 5.99993C127.642 5.99993 125.233 6.59993 122.825 7.79993L123.427 5.99993H113.192L103.558 33H114.396L116.804 26.4C118.611 27.6 120.417 27.6 122.825 27.6C127.642 27.6 131.254 25.2 132.458 21.6L134.867 11.9999C135.469 10.7999 135.469 10.1999 135.469 9.59994C135.469 7.19993 133.663 5.99993 130.05 5.99993ZM124.029 12.5999L121.019 21C120.417 22.2 119.815 22.8 119.213 22.8C118.611 22.8 118.008 22.2 118.008 21.6V21L121.019 12.5999C121.621 11.3999 122.223 10.7999 123.427 10.7999C124.029 10.7999 124.631 11.3999 124.631 11.9999C124.029 11.9999 124.029 11.9999 124.029 12.5999Z" fill="#0085FF"/>
<path d="M103.558 5.99993H92.7208C90.3124 5.99993 88.5062 5.99993 87.302 6.59993C85.4958 7.19993 84.2916 8.39993 83.6895 10.7999L79.4749 22.8C79.4749 23.4 78.8728 24 78.8728 25.2C78.8728 25.8 78.8728 26.4 79.4749 27C80.077 27.6 81.8833 28.2 84.8937 28.2H95.7312C98.1395 28.2 99.9458 28.2 101.15 27.6C102.956 27 103.558 25.2 104.762 23.4L108.977 11.3999C109.579 10.7999 109.579 9.59994 109.579 8.99994C108.977 6.59993 107.171 5.99993 103.558 5.99993ZM97.5374 11.3999L93.9249 21.6C93.3229 22.8 92.7208 23.4 92.1187 23.4C91.5166 23.4 90.9145 22.8 90.9145 22.2V21.6L94.527 11.3999C95.1291 10.1999 95.7312 9.59994 96.9354 9.59994C97.5374 9.59994 98.1395 10.1999 98.1395 10.7999C97.5374 11.3999 97.5374 11.3999 97.5374 11.3999Z" fill="#0085FF"/>
<path d="M160.756 5.99993C160.154 5.99993 158.95 5.99993 157.144 5.99993H146.908C144.5 5.99993 142.694 5.99993 141.49 6.59993C139.683 7.19993 138.479 8.39993 137.877 10.7999L137.275 12.5999H148.113V11.9999C148.715 10.7999 149.317 10.1999 150.521 10.1999C151.123 10.1999 151.725 10.1999 151.725 10.7999C151.725 11.3999 151.725 11.9999 151.123 12.5999L140.888 15.6C139.081 16.2 137.877 16.8 137.275 17.4C136.673 18 135.469 18.6 134.867 19.8C134.265 21 133.663 22.8 133.663 24C133.663 24.6 133.663 25.8 134.265 26.4C134.867 27.6 136.673 28.2 139.081 28.2C141.49 28.2 143.898 27.6 146.306 27L145.704 28.2H156.542L162.563 11.3999C163.165 10.7999 163.165 9.59994 163.165 8.99994C163.165 7.19993 162.563 6.59993 160.756 5.99993ZM148.113 21.6C147.511 22.8 146.908 23.4 145.704 23.4C145.102 23.4 144.5 23.4 144.5 22.8C144.5 22.2 144.5 21.6 145.102 21C145.704 19.8 146.306 19.2 148.113 18.6L149.317 18L148.113 21.6Z" fill="#0085FF"/>
<path d="M60.2084 5.99993L52.3813 27.6H63.2188L68.6376 12.5999C69.2396 11.3999 69.8417 10.7999 71.0459 10.7999C71.648 10.7999 72.2501 10.7999 72.2501 11.3999V11.9999L71.648 13.7999H81.8834V11.9999C82.4855 10.7999 82.4855 10.1999 82.4855 9.59994C82.4855 8.99994 82.4855 8.39993 81.8834 7.19993C81.2813 6.59993 79.4751 5.99993 77.0667 5.99993C76.4646 5.99993 75.2605 5.99993 74.6584 5.99993C73.4542 5.99993 71.648 6.59993 69.8417 7.19993L71.0459 5.99993H60.2084Z" fill="#0085FF"/>
<path d="M32.5127 5.99993L27.0939 21.6C26.4919 22.2 26.4919 23.4 26.4919 24C26.4919 24.6 26.4919 25.8 27.0939 26.4C27.696 27.6 29.5023 28.2 31.9106 28.2C33.7169 28.2 34.921 28.2 37.3294 27.6C38.5335 27 39.1356 27 39.1356 27V27.6H49.9731L57.1981 5.99993H46.3606L40.9419 21C40.3398 22.2 39.7377 22.8 39.1356 22.8C38.5335 22.8 38.5335 22.8 37.9315 22.2C37.9315 22.2 37.9315 21.6 37.9315 21L43.3502 5.99993H32.5127Z" fill="#0085FF"/>
<path d="M0 27.6001H22.8792L24.6854 21.0001H16.2563L18.0625 15.6H27.0938L29.5021 9.00002H20.4708L21.675 6.00001H30.1042L32.5125 0H9.63334L0 27.6001Z" fill="#0085FF"/>
<path d="M234.21 5.99993C233.608 5.99993 232.404 5.99993 230.598 5.99993H220.362C217.954 5.99993 216.148 5.99993 214.944 6.59993C213.137 7.19993 211.933 8.39993 211.331 10.7999L210.729 12.5999H221.567V11.9999C222.169 10.7999 222.771 10.1999 223.975 10.1999C224.577 10.1999 225.179 10.1999 225.179 10.7999C225.179 11.3999 225.179 11.9999 224.577 12.5999L214.342 15.6C212.535 16.2 211.331 16.8 210.729 17.4C210.127 18 208.923 18.6 208.321 19.8C207.719 21 207.117 22.8 207.117 24C207.117 24.6 207.117 25.8 207.719 26.4C208.321 27.6 210.127 28.2 212.535 28.2C214.944 28.2 217.352 27.6 219.76 27L219.158 28.2H229.394L235.415 11.3999C236.017 10.7999 236.017 9.59994 236.017 8.99994C236.619 7.19993 236.017 6.59993 234.21 5.99993ZM221.567 21.6C220.965 22.8 220.362 23.4 219.158 23.4C218.556 23.4 217.954 23.4 217.954 22.8C217.954 22.2 217.954 21.6 218.556 21C219.158 19.8 219.76 19.2 221.567 18.6L222.771 18L221.567 21.6Z" fill="#0085FF"/>
<path d="M251.069 7.19993V5.99993H240.833L233.006 27.6H243.844L249.263 12.5999C249.865 11.3999 250.467 10.7999 251.671 10.7999C252.273 10.7999 252.875 10.7999 252.875 11.3999V11.9999L252.273 13.7999H262.508V11.9999C263.11 10.7999 263.111 10.1999 263.111 9.59994C263.111 8.99994 263.11 8.39993 262.508 7.19993C261.906 6.59993 260.1 5.99993 257.692 5.99993C257.09 5.99993 255.885 5.99993 255.283 5.99993C254.079 5.99993 252.875 6.59993 251.069 7.19993Z" fill="#0085FF"/>
<path d="M277.56 10.7999C277.56 10.7999 277.56 11.3999 276.958 11.9999H287.796L289 10.7999C289 10.1999 289 8.99994 289 8.39993C289 6.59993 287.194 5.99993 282.979 5.99993H272.744C270.335 5.99993 268.529 5.99993 267.325 6.59993C265.519 7.19993 264.315 8.99993 263.713 10.7999L263.11 12.5999C263.11 13.1999 262.508 13.7999 262.508 14.3999C262.508 14.9999 262.508 14.9999 263.11 15.5999C263.713 16.2 264.917 16.8 266.121 17.4L271.54 19.2C272.142 19.2 272.744 19.8 273.346 19.8V20.4C273.346 20.4 273.346 21 272.744 21.6C272.744 22.2 272.142 22.8 272.142 22.8C271.54 22.8 271.54 22.8 270.938 22.8C270.335 22.8 269.733 22.8 269.733 22.2V21.6L270.335 19.8H259.498L258.294 22.8C259.498 23.4 258.896 24 258.896 24.6C258.896 25.2 258.896 25.8 259.498 26.4C260.1 27 261.906 27.6 264.917 27.6H275.754C278.163 27.6 279.969 27.6 281.173 27C282.979 26.4 284.183 24.6 284.785 22.8L285.99 20.4C285.99 19.8 286.592 19.2 286.592 18C286.592 18 286.592 17.4 285.99 16.8C285.388 16.2 284.183 15.6 281.775 14.9999L276.958 13.1999C275.754 12.5999 275.152 12.5999 274.55 12.5999C274.55 12.5999 274.55 11.9999 274.55 11.3999C274.55 10.7999 275.152 10.1999 276.356 10.1999C276.958 10.1999 277.56 10.1999 277.56 10.7999Z" fill="#0085FF"/>
<path d="M205.913 21.6001L207.719 16.2H193.871L192.667 19.2C192.065 20.4 191.463 21.0001 190.258 21.0001C189.656 21.0001 189.054 21.0001 189.054 20.4001C189.054 19.8 189.054 19.8 189.054 18.6L193.269 7.20002C193.871 6.60002 194.473 6.00001 195.677 6.00001C196.279 6.00001 196.881 6.00001 196.881 6.60002C196.881 6.60002 196.881 7.20002 196.881 8.40002L196.279 10.2H210.127L211.331 6.60002C211.933 5.40001 211.933 4.20001 211.933 3.60001C211.933 3.00001 211.933 1.8 211.331 1.8C210.127 0.600002 208.321 0 204.708 0H190.258C187.248 0 185.442 0.600001 183.635 1.2C181.829 2.40001 180.625 4.20001 179.421 6.60002L174.002 21.6001C174.002 22.2001 173.4 23.4001 173.4 24.0001C173.4 26.4001 175.808 27.6001 180.023 27.6001H194.473C197.483 27.6001 199.29 27.0001 201.096 26.4001C203.504 25.8001 205.311 24.0001 205.913 21.6001Z" fill="#0085FF"/>
</svg>
