<svg width="35" height="35" viewBox="0 0 35 35" fill="none" xmlns="http://www.w3.org/2000/svg">
<circle cx="17.5" cy="17.5" r="17.5" fill="url(#paint0_radial_101_1505)"/>
<path fill-rule="evenodd" clip-rule="evenodd" d="M7 17.7C7 12.1264 11.3667 8 17 8C22.6333 8 27 12.1264 27 17.7C27 23.2736 22.6333 27.4 17 27.4C15.9882 27.4 15.0174 27.2664 14.1053 27.0156C13.928 26.9668 13.7395 26.9806 13.5712 27.0548L11.5863 27.931C11.0671 28.1602 10.4811 27.791 10.4637 27.2236L10.4092 25.4448C10.4025 25.2256 10.3039 25.0208 10.1406 24.8746C8.1948 23.1346 7 20.6154 7 17.7ZM13.9325 15.8759L10.995 20.5363C10.7131 20.9836 11.2628 21.4876 11.684 21.168L14.8393 18.7733C15.0528 18.6113 15.3477 18.6104 15.5621 18.7712L17.8985 20.5235C18.5995 21.0493 19.6001 20.8647 20.0674 20.1233L23.0049 15.4629C23.2868 15.0156 22.737 14.5116 22.3159 14.8312L19.1605 17.2259C18.9471 17.3879 18.6521 17.3888 18.4378 17.228L16.1014 15.4757C15.4003 14.9499 14.3997 15.1345 13.9325 15.8759Z" fill="white"/>
<defs>
<radialGradient id="paint0_radial_101_1505" cx="0" cy="0" r="1" gradientUnits="userSpaceOnUse" gradientTransform="translate(6.73645 34.8127) scale(38.136)">
<stop stop-color="#0099FF"/>
<stop offset="0.60975" stop-color="#A033FF"/>
<stop offset="0.93482" stop-color="#FF5280"/>
<stop offset="1" stop-color="#FF7061"/>
</radialGradient>
</defs>
</svg>
