<svg width="35" height="35" viewBox="0 0 35 35" fill="none" xmlns="http://www.w3.org/2000/svg">
<circle cx="17.5" cy="17.5" r="17.5" fill="#00A9E7"/>
<path d="M26.5284 18.4347C26.5881 17.9574 26.6477 17.5398 26.6477 17.0625C26.6477 12.2898 22.7699 8.35227 17.9375 8.35227C17.4602 8.35227 17.0426 8.41193 16.5653 8.47159C15.7898 8.05398 14.9545 7.875 14.1193 7.875C11.1364 7.875 8.75 10.2614 8.75 13.2443C8.75 14.0795 8.92898 14.9148 9.34659 15.6903C9.28693 16.1676 9.22727 16.5852 9.22727 17.0625C9.22727 21.8352 13.1051 25.7727 17.9375 25.7727C18.4148 25.7727 18.8324 25.7131 19.3097 25.6534C20.0852 26.0114 20.9205 26.25 21.7557 26.25C24.7386 26.25 27.125 23.8636 27.125 20.8807C27.125 20.0455 26.8864 19.2102 26.5284 18.4347ZM21.5767 20.2244C21.3977 20.5824 21.1591 20.8807 20.8011 21.1193C20.4432 21.358 20.0852 21.5369 19.608 21.6563C19.1307 21.7756 18.5938 21.8352 17.9972 21.8352C16.7443 21.8352 15.7301 21.5369 15.0142 21C14.5966 20.642 14.2386 20.2244 14.0597 19.6875C13.821 19.2102 14.2386 18.6136 14.8352 18.6136H15.0142C15.3722 18.6136 15.7301 18.8523 15.8494 19.1506C15.9688 19.4489 16.1477 19.6875 16.3864 19.8665C16.7443 20.1648 17.2813 20.2841 17.9375 20.2841C18.5341 20.2841 19.0114 20.1648 19.3693 19.9858C19.7273 19.8068 19.9063 19.4489 19.9063 19.0909C19.9063 18.9119 19.8466 18.7926 19.7869 18.6733C19.7273 18.554 19.5483 18.4347 19.429 18.375C19.25 18.2557 19.071 18.196 18.7727 18.1364C18.5341 18.0767 18.2358 17.9574 17.8778 17.8977L17.5199 17.7784C17.1023 17.6591 16.625 17.5398 16.267 17.4205C15.8494 17.3011 15.4915 17.1222 15.1932 16.9432C14.8949 16.7642 14.6563 16.5256 14.4773 16.1676C14.2983 15.8693 14.2386 15.4517 14.2386 14.9744C14.2386 14.4972 14.358 14.0795 14.5369 13.7216C14.7159 13.3636 15.0142 13.0653 15.3125 12.8864C15.6705 12.6477 16.0284 12.4688 16.5057 12.4091C16.9233 12.2898 17.4006 12.2301 17.9375 12.2301C18.5341 12.2301 19.0114 12.2898 19.4886 12.4091C19.9659 12.5284 20.3239 12.7074 20.6818 13.0057C21.0398 13.2443 21.2784 13.5426 21.4574 13.9602C21.7557 14.4972 21.3381 15.2131 20.6818 15.2131H20.5028C20.1449 15.2131 19.8466 15.0341 19.6676 14.7358C19.5483 14.5568 19.429 14.3778 19.25 14.1989C18.9517 13.9602 18.4744 13.8409 17.9375 13.8409C17.4006 13.8409 16.983 13.9602 16.6847 14.1392C16.3864 14.3182 16.267 14.6165 16.267 14.9148C16.267 15.0938 16.3267 15.2131 16.3864 15.3324C16.446 15.4517 16.5653 15.571 16.7443 15.6307C16.9233 15.6903 17.1023 15.8097 17.3409 15.8693C17.5795 15.929 17.8778 15.9886 18.2358 16.108C18.5938 16.1676 18.892 16.2869 19.25 16.3466C19.5483 16.4063 19.8466 16.5256 20.1449 16.5852C20.4432 16.7045 20.6818 16.8239 20.9205 16.9432C21.1591 17.0625 21.3381 17.2415 21.517 17.4205C21.696 17.5994 21.8153 17.8381 21.875 18.0767C21.9943 18.3153 21.9943 18.6733 21.9943 19.0313C21.875 19.4489 21.7557 19.8665 21.5767 20.2244Z" fill="white"/>
</svg>
