<svg width="35" height="35" viewBox="0 0 35 35" fill="none" xmlns="http://www.w3.org/2000/svg">
<circle cx="17.5" cy="17.5" r="17.5" fill="#2F89CE"/>
<path d="M8.18162 17.8273L12.205 19.3275L13.7734 24.3737C13.8416 24.7147 14.2507 24.7829 14.5235 24.5783L16.7738 22.7371C16.9784 22.5326 17.3193 22.5326 17.5921 22.7371L21.6154 25.6694C21.8882 25.874 22.2973 25.7376 22.3655 25.3966L25.366 11.0763C25.4342 10.7354 25.0932 10.3944 24.7523 10.5308L8.18162 16.9408C7.77247 17.0772 7.77247 17.6909 8.18162 17.8273ZM13.5688 18.5774L21.479 13.7358C21.6154 13.6676 21.7518 13.8722 21.6154 13.9404L15.1372 20.0095C14.9326 20.214 14.728 20.4868 14.728 20.8278L14.5235 22.4644C14.5235 22.6689 14.1825 22.7371 14.1143 22.4644L13.296 19.4639C13.0914 19.123 13.2278 18.7138 13.5688 18.5774Z" fill="white"/>
</svg>
