<svg width="35" height="35" viewBox="0 0 35 35" fill="none" xmlns="http://www.w3.org/2000/svg">
<circle cx="17.5" cy="17.5" r="17.5" fill="#7C509A"/>
<path d="M22.9722 9.22767C19.6371 8.59078 16.1738 8.59078 12.8387 9.22767C11.3635 9.54612 9.5036 11.3294 9.18292 12.7306C8.60569 15.4693 8.60569 18.2716 9.18292 21.0103C9.56774 22.4115 11.4277 24.1948 12.8387 24.5133C12.9028 24.5133 12.9669 24.5769 12.9669 24.6406V28.6531C12.9669 28.8442 13.2235 28.9716 13.3518 28.7805L15.2759 26.8061C15.2759 26.8061 16.8151 25.2138 17.0717 24.9591C17.0717 24.9591 17.1358 24.8954 17.1999 24.8954C19.124 24.9591 21.1122 24.768 23.0363 24.4496C24.5115 24.1311 26.3714 22.3478 26.6921 20.9466C27.2693 18.208 27.2693 15.4056 26.6921 12.6669C26.3073 11.3294 24.4473 9.54612 22.9722 9.22767ZM23.0363 21.2014C22.7156 21.8383 22.3308 22.3478 21.6895 22.6663C21.4971 22.7299 21.3046 22.7936 21.1122 22.8573C20.8557 22.7936 20.6633 22.7299 20.4709 22.6663C18.4185 21.8383 16.4944 20.6919 14.9552 19.0359C14.1214 18.0806 13.4159 16.9978 12.8387 15.8514C12.5821 15.2782 12.3256 14.7687 12.1332 14.1955C11.9408 13.686 12.2615 13.1765 12.5821 12.7943C12.9028 12.4122 13.2876 12.1574 13.7366 11.9663C14.0573 11.7753 14.3779 11.9027 14.6345 12.1574C15.1476 12.7943 15.6607 13.4312 16.0455 14.1318C16.302 14.5776 16.2379 15.0871 15.7889 15.4056C15.6607 15.4693 15.5965 15.533 15.4683 15.6604C15.4041 15.724 15.2758 15.7877 15.2117 15.9151C15.0834 16.1062 15.0834 16.2973 15.1476 16.4883C15.6607 17.9532 16.6227 19.0996 18.0978 19.7365C18.3544 19.8639 18.5468 19.9276 18.8675 19.9276C19.3164 19.8639 19.5088 19.3544 19.8295 19.0996C20.1502 18.8449 20.535 18.8449 20.9198 19.0359C21.2405 19.227 21.5612 19.4818 21.946 19.7365C22.2667 19.9913 22.5874 20.1823 22.908 20.4371C23.1005 20.5645 23.1646 20.8829 23.0363 21.2014ZM20.3426 16.4246C20.2143 16.4246 20.2785 16.4246 20.3426 16.4246C20.0861 16.4246 20.0219 16.2973 19.9578 16.1062C19.9578 15.9788 19.9578 15.7877 19.8937 15.6604C19.8295 15.4056 19.7012 15.1508 19.4447 14.9598C19.3164 14.8961 19.1882 14.8324 19.0599 14.7687C18.8675 14.705 18.7392 14.705 18.5468 14.705C18.3544 14.6413 18.2902 14.5139 18.2902 14.3229C18.2902 14.1955 18.4827 14.0681 18.6109 14.0681C19.6371 14.1318 20.4067 14.705 20.535 15.9151C20.535 15.9788 20.535 16.1062 20.535 16.1699C20.535 16.2973 20.4709 16.4246 20.3426 16.4246ZM19.7012 13.6223C19.3806 13.4949 19.0599 13.3675 18.6751 13.3038C18.5468 13.3038 18.3544 13.2401 18.2261 13.2401C18.0337 13.2401 17.9054 13.1128 17.9696 12.9217C17.9696 12.7306 18.0978 12.6032 18.2902 12.6669C18.9316 12.7306 19.5088 12.858 20.0861 13.1128C21.2405 13.686 21.8819 14.6413 22.0743 15.9151C22.0743 15.9788 22.0743 16.0425 22.0743 16.1062C22.0743 16.2336 22.0743 16.3609 22.0743 16.552C22.0743 16.6157 22.0743 16.6794 22.0743 16.7431C22.0101 16.9978 21.5612 17.0615 21.4971 16.7431C21.4971 16.6794 21.4329 16.552 21.4329 16.4883C21.4329 15.9151 21.3046 15.3419 21.0481 14.8324C20.6633 14.2592 20.2143 13.877 19.7012 13.6223ZM23.1646 17.4437C22.9722 17.4437 22.8439 17.2526 22.8439 17.0615C22.8439 16.6794 22.7798 16.2973 22.7156 15.9151C22.4591 13.877 20.7916 12.2211 18.8033 11.9027C18.4827 11.839 18.162 11.839 17.9054 11.7753C17.713 11.7753 17.4565 11.7753 17.3923 11.5205C17.3282 11.3294 17.5206 11.1384 17.713 11.1384C17.7772 11.1384 17.8413 11.1384 17.8413 11.1384C20.4709 11.2021 17.9696 11.1384 17.8413 11.1384C20.535 11.2021 22.7798 12.9854 23.2287 15.6604C23.2929 16.1062 23.357 16.552 23.357 17.0615C23.4853 17.2526 23.357 17.4437 23.1646 17.4437Z" fill="white"/>
</svg>
